<svg width="62" height="37" viewBox="0 0 62 37" fill="none" xmlns="http://www.w3.org/2000/svg">
<path d="M15.3 9.59259C16.38 9.59259 17.64 9.95802 18.54 10.5062C17.64 9.95802 16.56 9.59259 15.3 9.59259Z" fill="white"/>
<path d="M10.8 11.4198C12.06 10.3235 13.68 9.59259 15.3 9.59259C13.5 9.59259 12.06 10.1407 10.8 11.4198Z" fill="white"/>
<path d="M41.76 11.4198C43.02 10.1407 44.46 9.59259 46.26 9.59259C47.88 9.59259 49.5 10.3235 50.76 11.4198C52.02 12.6988 52.56 14.1605 52.56 15.9877C52.56 17.6321 51.84 19.2765 50.76 20.5556C49.5 21.8346 48.06 22.3827 46.26 22.3827C44.64 22.3827 43.02 21.6519 41.76 20.5556L39.6 18.1802L37.44 20.3728L39.78 22.7481C41.58 24.5753 43.92 25.4889 46.44 25.4889C48.96 25.4889 51.3 24.5753 53.1 22.7481C54.9 20.921 55.8 18.5457 55.8 15.9877C55.8 13.4296 54.9 11.0543 53.1 9.22716C51.3 7.4 48.96 6.48642 46.44 6.48642C43.92 6.48642 41.58 7.4 39.78 9.22716L38.7 10.3235L33.12 15.9877L26.46 22.5654L25.74 23.2963L24.3 24.758L24.12 24.9407C19.26 29.8741 11.34 29.8741 6.48 24.9407C4.14 22.5654 2.88 19.2765 2.88 15.9877C2.88 12.516 4.14 9.40988 6.48 7.03457C8.82 4.65926 12.06 3.38025 15.3 3.38025C18.54 3.38025 21.78 4.65926 24.12 7.03457L28.62 11.6025L20.16 20.1901L19.8 20.5556C18.54 21.8346 17.1 22.3827 15.3 22.3827C14.22 22.3827 13.14 22.0173 12.24 21.6519L21.42 12.3333L23.22 10.5062L21.96 9.22716C21.6 8.86173 21.24 8.4963 20.88 8.31358C19.26 7.21728 17.46 6.48642 15.3 6.48642C12.78 6.48642 10.44 7.4 8.64 9.22716C6.84 11.0543 5.94 13.4296 5.94 15.9877C5.94 18.5457 6.84 20.921 8.64 22.7481C10.44 24.5753 12.78 25.4889 15.3 25.4889C17.82 25.4889 20.16 24.5753 21.96 22.7481L26.28 18.363L28.8 15.8049L30.96 13.6123L32.94 11.6025L33.12 11.4198L26.46 4.65926C20.34 -1.55309 10.44 -1.55309 4.5 4.65926C1.62 7.58272 0 11.6025 0 15.8049C0 20.0074 1.62 24.0272 4.5 26.9506C7.38 30.2395 11.34 31.7012 15.3 31.7012C19.26 31.7012 23.22 30.2395 26.28 27.1333L28.62 24.758L35.1 18.1802L41.76 11.4198ZM9 15.9877C9 14.1605 9.54 12.6988 10.8 11.4198C12.06 10.1407 13.5 9.59259 15.3 9.59259C16.56 9.59259 17.64 9.95802 18.54 10.5062L9.9 19.2765C9.36 18.363 9 17.2667 9 15.9877Z" fill="white"/>
<path d="M9 15.9876C9 14.3432 9.72 12.6988 10.8 11.4197C9.54 12.6988 9 14.1605 9 15.9876Z" fill="white"/>
<path d="M9.9 19.2766C9.36 18.363 9 17.084 9 15.9877C9 17.2667 9.36 18.363 9.9 19.2766Z" fill="white"/>
<path d="M57.24 4.842C51.12 -1.37035 41.22 -1.37035 35.28 4.842L32.94 7.21731L35.1 9.4099L37.44 7.03459C42.3 2.10126 50.22 2.10126 55.08 7.03459C57.42 9.4099 58.68 12.6988 58.68 15.9877C58.68 19.4593 57.42 22.5655 55.08 24.9408C52.74 27.3161 49.5 28.5951 46.26 28.5951C42.84 28.5951 39.78 27.3161 37.44 24.9408L35.1 22.5655L32.94 24.758L35.28 27.1334C38.34 30.2395 42.3 31.7013 46.26 31.7013C50.22 31.7013 54.18 30.2395 57.24 27.1334C60.12 24.2099 61.74 20.1901 61.74 15.9877C61.74 11.7852 60.12 7.76546 57.24 4.842Z" fill="white"/>
</svg>
